<svg xmlns="http://www.w3.org/2000/svg" width="34.985" height="38" viewBox="0 0 34.985 38">
    <defs>
        <style>
            .cls-1{fill:#4b5aa7;stroke:#dbdde6}
        </style>
    </defs>
    <g id="calendar-interface-symbol-with-squares-in-rounded-rectangular-shape-with-spring-on-top-border" transform="translate(-1.474 0.5)">
        <g id="Group_435" transform="translate(1.974)">
            <path id="Path_494" d="M31.515 4.328h-1.149V3.015a2.8 2.8 0 1 0-5.584 0v1.312h-2.865V3.015A2.912 2.912 0 0 0 19.125 0a2.912 2.912 0 0 0-2.792 3.015v1.312h-2.865V3.015A2.912 2.912 0 0 0 10.676 0a2.912 2.912 0 0 0-2.792 3.015v1.312H6.418a4.561 4.561 0 0 0-4.444 4.659v2.193h33.985V8.986a4.56 4.56 0 0 0-4.444-4.658zM11.9 8.382a1.3 1.3 0 0 1-1.223 1.37 1.3 1.3 0 0 1-1.223-1.37V3.015a1.3 1.3 0 0 1 1.223-1.37 1.3 1.3 0 0 1 1.223 1.37zm8.449 0a1.231 1.231 0 1 1-2.447 0V3.015a1.231 1.231 0 1 1 2.447 0zm8.449 0a1.231 1.231 0 1 1-2.447 0V3.015a1.231 1.231 0 1 1 2.447 0z" class="cls-1" transform="translate(-1.974)"/>
            <path id="Path_495" d="M1.974 34.133a4.561 4.561 0 0 0 4.444 4.659h25.1a4.561 4.561 0 0 0 4.444-4.659V12.1H1.974v22.033zm24.212-18.51h4.806v4.482h-4.806zm0 5.982h4.806v4.479h-4.806zm0 5.984h4.806v4.479h-4.806zm-6.412-11.965h4.8v4.482h-4.8zm0 5.982h4.8v4.479h-4.8zm0 5.984h4.8v4.479h-4.8zm-6.418-11.966h4.806v4.482h-4.806v-4.482zm0 5.982h4.806v4.479h-4.806v-4.479zm0 5.984h4.806v4.479h-4.806V27.59zm-6.415-5.984h4.806v4.479H6.941zm0 5.984h4.806v4.479H6.941z" class="cls-1" transform="translate(-1.974 -1.793)"/>
        </g>
    </g>
</svg>
