<svg id="support_agent_black_24dp" xmlns="http://www.w3.org/2000/svg" width="48" height="48" viewBox="0 0 48 48">
  <g id="Group_456" data-name="Group 456">
    <rect id="Rectangle_714" data-name="Rectangle 714" width="48" height="48" fill="none"/>
  </g>
  <g id="Group_458" data-name="Group 458" transform="translate(3.958 5.937)">
    <g id="Group_457" data-name="Group 457">
      <path id="Path_526" data-name="Path 526" d="M39.6,21.248A17.823,17.823,0,0,0,21.792,3C12.509,3,3.979,10.224,3.979,21.367A3.894,3.894,0,0,0,2,24.771v3.958a3.97,3.97,0,0,0,3.958,3.958H7.937V20.615a13.854,13.854,0,1,1,27.708,0V34.667H19.812v3.958H35.646A3.97,3.97,0,0,0,39.6,34.667V32.252a3.659,3.659,0,0,0,1.979-3.246V24.454A3.645,3.645,0,0,0,39.6,21.248Z" transform="translate(-2 -3)" fill="#b2b7d2"/>
      <ellipse id="Ellipse_54" data-name="Ellipse 54" cx="2" cy="2.5" rx="2" ry="2.5" transform="translate(12.042 17.063)" fill="#b2b7d2"/>
      <ellipse id="Ellipse_55" data-name="Ellipse 55" cx="2" cy="2.5" rx="2" ry="2.5" transform="translate(24.042 17.063)" fill="#b2b7d2"/>
      <path id="Path_527" data-name="Path 527" d="M29.745,15.955a11.953,11.953,0,0,0-23.71,2.81A15.981,15.981,0,0,0,15.653,7.108,15.907,15.907,0,0,0,29.745,15.955Z" transform="translate(1.922 -0.063)" fill="#b2b7d2"/>
    </g>
  </g>
</svg>
