<svg xmlns="http://www.w3.org/2000/svg" width="44" height="47.826" viewBox="0 0 44 47.826">
    <path fill="#b2b7d2" d="M33 23.913A11.957 11.957 0 1 0 45 35.87a11.98 11.98 0 0 0-12-11.957zM34 40.8v1.048h-1v-.994a6.937 6.937 0 0 1-3-.723l.456-1.638a6.1 6.1 0 0 0 3.224.538c1.148-.259 1.384-1.437.114-2-.93-.432-3.778-.8-3.778-3.232 0-1.357 1.04-2.575 2.984-2.84v-1.068h1v1.014a9.355 9.355 0 0 1 2.442.418l-.362 1.642a6.417 6.417 0 0 0-2.444-.462c-1.488.086-1.62 1.371-.58 1.909 1.712.8 3.944 1.395 3.944 3.533 0 1.711-1.344 2.621-3 2.855zm3.248-20.284A13.584 13.584 0 0 0 43 18.13v1.3c0 .994-.772 1.9-2.014 2.646a15.924 15.924 0 0 0-3.738-1.56zM33 8.967c5.346 0 10-2.007 10-4.484S38.346 0 33 0 23 2.007 23 4.484s4.656 4.483 10 4.483zm.186-4c-.6-.179-2.428-.331-2.428-1.345 0-.566.668-1.07 1.916-1.182v-.447h.642v.42a8.622 8.622 0 0 1 1.568.179l-.232.682a6.436 6.436 0 0 0-1.416-.2h-.144c-.964.04-1.042.572-.376.8 1.094.337 2.534.582 2.534 1.475 0 .711-.868 1.092-1.934 1.188v.438h-.642V6.56a6.481 6.481 0 0 1-1.924-.3l.294-.684a7.016 7.016 0 0 0 1.656.251l.416-.028c.738-.106.886-.6.07-.833zM11 30.888a17.143 17.143 0 0 0 7.41-1.53 15.991 15.991 0 0 1 2.4-3.784c-.91-2.079-5.082-3.654-9.81-3.654-5.344 0-10 2.007-10 4.484s4.656 4.484 10 4.484zm.186-4c-.6-.179-2.428-.331-2.428-1.345 0-.566.67-1.07 1.916-1.182v-.444h.642v.42a8.622 8.622 0 0 1 1.568.179l-.234.682a6.4 6.4 0 0 0-1.414-.2h-.144c-.964.04-1.04.572-.376.8 1.094.337 2.534.582 2.534 1.475 0 .711-.868 1.092-1.934 1.188v.438h-.642v-.419a6.471 6.471 0 0 1-1.924-.3l.294-.684a7.016 7.016 0 0 0 1.656.251l.416-.028c.736-.107.884-.6.07-.835zm8.006 17A16.031 16.031 0 0 1 11 45.833c-5.344 0-10-2.007-10-4.484v-1.3c2.292 1.829 6.218 2.794 10 2.794a20.522 20.522 0 0 0 7.1-1.218 15.691 15.691 0 0 0 1.092 2.259zM1 36.368v-1.3c2.292 1.827 6.218 2.792 10 2.792a21.251 21.251 0 0 0 6.056-.86 15.766 15.766 0 0 0 .436 2.73A18.274 18.274 0 0 1 11 40.851c-5.344 0-10-2.007-10-4.484zm0-4.982v-1.3c2.292 1.829 6.218 2.794 10 2.794a21.007 21.007 0 0 0 6.532-1.014 15.736 15.736 0 0 0-.482 3.041 18.725 18.725 0 0 1-6.05.963c-5.344 0-10-2.007-10-4.484zm22-21.92v-1.3C25.292 10 29.218 10.96 33 10.96s7.708-.96 10-2.794v1.3c0 2.477-4.654 4.484-10 4.484s-10-2.007-10-4.484zm0 9.964v-1.3a13.573 13.573 0 0 0 5.752 2.385 15.909 15.909 0 0 0-3.736 1.56C23.772 21.332 23 20.424 23 19.429zm0-4.982v-1.3c2.292 1.827 6.218 2.792 10 2.792s7.708-.964 10-2.792v1.3c0 2.477-4.654 4.484-10 4.484s-10-2.008-10-4.485z" transform="translate(-1)"/>
</svg>
