<svg xmlns="http://www.w3.org/2000/svg" width="34.5" height="35" viewBox="0 0 34.5 35">
    <defs>
        <style>
            .cls-1{fill:#fff}
        </style>
    </defs>
    <g id="refund-svgrepo-com" transform="translate(0.001 -22.396)">
        <path id="Path_504" d="M29.907 27.522A14.8 14.8 0 0 0 18.819 22.4a.782.782 0 0 0-.736.821v4.419a.782.782 0 0 0 .736.821c5.649 0 10.245 5.129 10.245 11.434S24.469 51.33 18.819 51.33c-5.181 0-9.5-4.3-10.158-9.943h2.589a.782.782 0 0 0 .736-.821.869.869 0 0 0-.214-.579l-5.282-6.6a.7.7 0 0 0-.549-.274.706.706 0 0 0-.55.28L.182 40.025a.9.9 0 0 0-.117.88.736.736 0 0 0 .67.482H3.2A18.289 18.289 0 0 0 7.942 52.5a14.791 14.791 0 0 0 10.878 4.9 14.8 14.8 0 0 0 11.087-5.126 18.968 18.968 0 0 0 0-24.749zM18.819 55.753c-7.658 0-13.893-6.685-14.2-15.22a.778.778 0 0 0-.735-.789H2.358l3.588-4.574L9.6 39.744H7.855a.7.7 0 0 0-.534.256.879.879 0 0 0-.2.609c.335 6.933 5.474 12.363 11.7 12.363 6.461 0 11.717-5.866 11.717-13.077 0-6.935-4.862-12.626-10.981-13.052V24.06c7.494.429 13.472 7.368 13.472 15.836-.002 8.744-6.375 15.857-14.21 15.857z" class="cls-1" transform="translate(0)"/>
        <path id="Path_505" d="M210.121 122.689v5.611h-2.265a.763.763 0 1 0 0 1.484h2.265v.921a.965.965 0 0 0 1.878 0v-.987c2.523-.352 4.447-2.1 4.447-4.192s-1.923-3.839-4.447-4.192v-5.613h1.978a.763.763 0 1 0 0-1.484H212v-.921a.965.965 0 0 0-1.878 0v.987c-2.524.352-4.447 2.1-4.447 4.192s1.925 3.842 4.446 4.194zm4.447 2.84A2.971 2.971 0 0 1 212 128.2v-5.344a2.971 2.971 0 0 1 2.568 2.673zm-4.447-9.7v5.344a2.674 2.674 0 0 1 0-5.344z" class="cls-1" transform="translate(-192.544 -82.117)"/>
    </g>
</svg>
