<svg xmlns="http://www.w3.org/2000/svg" width="40" height="31.105" viewBox="0 0 40 31.105">
    <path fill="#b2b7d2" d="M19.454 40.119L6.652 50.664v11.38a1.111 1.111 0 0 0 1.111 1.111l7.781-.02a1.111 1.111 0 0 0 1.105-1.111v-6.646a1.111 1.111 0 0 1 1.111-1.111h4.44a1.111 1.111 0 0 1 1.111 1.111v6.641a1.111 1.111 0 0 0 1.111 1.114l7.779.022a1.111 1.111 0 0 0 1.111-1.111V50.656l-12.8-10.537a.846.846 0 0 0-1.062 0zm20.223 7.167L33.872 42.5v-9.617a.833.833 0 0 0-.833-.833H29.15a.833.833 0 0 0-.833.833v5.042L22.1 32.81a3.333 3.333 0 0 0-4.236 0L.287 47.286a.833.833 0 0 0-.111 1.174l1.771 2.153a.833.833 0 0 0 1.174.113l16.333-13.454a.846.846 0 0 1 1.062 0l16.335 13.453a.833.833 0 0 0 1.174-.111l1.771-2.153a.833.833 0 0 0-.118-1.176z" transform="translate(0.015 -32.05)"/>
</svg>
