<svg xmlns="http://www.w3.org/2000/svg" width="45" height="48.667" viewBox="0 0 45 48.667">
  <g id="Group_459" data-name="Group 459" transform="translate(-72 -290)">
    <path id="male" d="M10.5,0c3.866,0,7,2.724,7,6.083s-3.134,6.083-7,6.083-7-2.724-7-6.083S6.634,0,10.5,0m5.25,13.688H14.507a10.938,10.938,0,0,1-8.015,0H5.25C2.35,13.688,0,15.73,0,18.25V31.177a2.471,2.471,0,0,0,2.625,2.281h1.75V46.385A2.471,2.471,0,0,0,7,48.667h7a2.471,2.471,0,0,0,2.625-2.281V33.458h1.75A2.471,2.471,0,0,0,21,31.177V18.25C21,15.73,18.65,13.688,15.75,13.688Z" transform="translate(72 290)" fill="#b2b7d2"/>
    <path id="male-2" data-name="male" d="M10.5,0c3.866,0,7,2.724,7,6.083s-3.134,6.083-7,6.083-7-2.724-7-6.083S6.634,0,10.5,0m5.25,13.688H14.507a10.938,10.938,0,0,1-8.015,0H5.25C2.35,13.688,0,15.73,0,18.25V31.177a2.471,2.471,0,0,0,2.625,2.281h1.75V46.385A2.471,2.471,0,0,0,7,48.667h7a2.471,2.471,0,0,0,2.625-2.281V33.458h1.75A2.471,2.471,0,0,0,21,31.177V18.25C21,15.73,18.65,13.688,15.75,13.688Z" transform="translate(96 290)" fill="#b2b7d2"/>
  </g>
</svg>
