<svg xmlns="http://www.w3.org/2000/svg" width="23.805" height="28.334" viewBox="0 0 23.805 28.334">
    <defs>
        <style>
            .cls-1{fill:#4b5aa7;stroke:#dbdde6}
        </style>
    </defs>
    <g id="user" transform="translate(0.5 0.5)">
        <path id="Path_498" d="M93.615 13.167a6.37 6.37 0 0 0 4.655-1.929 6.37 6.37 0 0 0 1.93-4.655 6.371 6.371 0 0 0-1.93-4.654 6.582 6.582 0 0 0-9.31 0 6.37 6.37 0 0 0-1.929 4.655 6.37 6.37 0 0 0 1.929 4.655 6.372 6.372 0 0 0 4.655 1.928zm0 0" class="cls-1" transform="translate(-82.386)"/>
        <path id="Path_499" d="M22.749 255.131a16.263 16.263 0 0 0-.221-1.727 13.608 13.608 0 0 0-.425-1.737 8.578 8.578 0 0 0-.714-1.62 6.112 6.112 0 0 0-1.076-1.4 4.746 4.746 0 0 0-1.546-.972 5.344 5.344 0 0 0-1.974-.357 2 2 0 0 0-1.07.454c-.321.209-.7.451-1.115.719a6.386 6.386 0 0 1-1.442.635 5.6 5.6 0 0 1-3.528 0 6.371 6.371 0 0 1-1.441-.635c-.415-.265-.79-.507-1.116-.719a2 2 0 0 0-1.07-.454 5.337 5.337 0 0 0-1.974.358 4.743 4.743 0 0 0-1.547.972 6.113 6.113 0 0 0-1.076 1.4 8.6 8.6 0 0 0-.714 1.62 13.64 13.64 0 0 0-.424 1.732 16.2 16.2 0 0 0-.221 1.728C.018 255.655 0 256.2 0 256.746a4.539 4.539 0 0 0 1.348 3.434 4.853 4.853 0 0 0 3.474 1.267h13.161a4.852 4.852 0 0 0 3.473-1.267 4.537 4.537 0 0 0 1.348-3.434c0-.551-.019-1.094-.055-1.615zm0 0" class="cls-1" transform="translate(0 -234.113)"/>
    </g>
</svg>
