<svg xmlns="http://www.w3.org/2000/svg" width="43" height="28.667" viewBox="0 0 43 28.667">
  <path id="iconmonstr-payment-17" d="M39.417,4H3.583A3.585,3.585,0,0,0,0,7.583v21.5a3.585,3.585,0,0,0,3.583,3.583H39.417A3.585,3.585,0,0,0,43,29.083V7.583A3.585,3.585,0,0,0,39.417,4ZM16.455,24.092A21.912,21.912,0,0,0,12.785,16.6l-.066-.192a.321.321,0,0,1,.326-.319h3.728a.619.619,0,0,1,.52.26,21.347,21.347,0,0,1,3.619,7.738H16.455Zm4.658-.5a20.991,20.991,0,0,0-2.56-5.939,27.85,27.85,0,0,0,.441-4.49,43.2,43.2,0,0,1,3.37,6.5A30.991,30.991,0,0,1,21.113,23.592Zm3.418,3.7Q24.126,20.648,19,12.575h4.348a29.858,29.858,0,0,1,5.689,14.717Zm4.741-.84a29.224,29.224,0,0,0-3.589-10.829,30.594,30.594,0,0,0-1.059-5.839.323.323,0,0,1,.308-.409h3.589a.632.632,0,0,1,.609.46,31.112,31.112,0,0,1,1.15,8.5A32.321,32.321,0,0,1,29.272,26.451Z" transform="translate(0 -4)" fill="#b2b7d2"/>
</svg>
